<svg width="28" height="18" viewBox="0 0 28 18" fill="none" xmlns="http://www.w3.org/2000/svg">
<g clip-path="url(#clip0_3_190)">
<mask id="mask0_3_190" style="mask-type:alpha" maskUnits="userSpaceOnUse" x="0" y="0" width="28" height="18">
<path d="M25.3333 0H2.66667C1.19391 0 0 1.07452 0 2.4V15.6C0 16.9255 1.19391 18 2.66667 18H25.3333C26.8061 18 28 16.9255 28 15.6V2.4C28 1.07452 26.8061 0 25.3333 0Z" fill="white"/>
</mask>
<g mask="url(#mask0_3_190)">
<path d="M25.3333 0H2.66667C1.19391 0 0 1.07452 0 2.4V15.6C0 16.9255 1.19391 18 2.66667 18H25.3333C26.8061 18 28 16.9255 28 15.6V2.4C28 1.07452 26.8061 0 25.3333 0Z" fill="#009C34"/>
<path fill-rule="evenodd" clip-rule="evenodd" d="M14 2.39999L24 8.99999L14 15.6L4 8.99999" fill="#F8E23D"/>
<path d="M14 13.2C16.5773 13.2 18.6667 11.3196 18.6667 9C18.6667 6.68041 16.5773 4.8 14 4.8C11.4227 4.8 9.33334 6.68041 9.33334 9C9.33334 11.3196 11.4227 13.2 14 13.2Z" fill="#002478"/>
<path fill-rule="evenodd" clip-rule="evenodd" d="M12 10.8V12H13.3333V10.8H12ZM14.6667 10.8V12H16V10.8H14.6667Z" fill="#91A1C3"/>
<path d="M10.6667 7.2C10.6667 7.2 13.6853 7.68 15.8613 8.5176L18.6667 9.6" stroke="#C9D0E0"/>
<path d="M25.3333 0.600006H2.66666C1.56209 0.600006 0.666656 1.40589 0.666656 2.40001V15.6C0.666656 16.5941 1.56209 17.4 2.66666 17.4H25.3333C26.4379 17.4 27.3333 16.5941 27.3333 15.6V2.40001C27.3333 1.40589 26.4379 0.600006 25.3333 0.600006Z" stroke="black" stroke-opacity="0.1"/>
</g>
</g>
<defs>
<clipPath id="clip0_3_190">
<rect width="28" height="18" fill="white"/>
</clipPath>
</defs>
</svg>
