<svg width="28" height="18" viewBox="0 0 28 18" fill="none" xmlns="http://www.w3.org/2000/svg">
<g clip-path="url(#clip0_3_18)">
<mask id="mask0_3_18" style="mask-type:alpha" maskUnits="userSpaceOnUse" x="0" y="0" width="28" height="18">
<path d="M25.3333 0H2.66667C1.19391 0 0 1.07452 0 2.4V15.6C0 16.9255 1.19391 18 2.66667 18H25.3333C26.8061 18 28 16.9255 28 15.6V2.4C28 1.07452 26.8061 0 25.3333 0Z" fill="white"/>
</mask>
<g mask="url(#mask0_3_18)">
<path d="M25.3333 0H2.66667C1.19391 0 0 1.07452 0 2.4V15.6C0 16.9255 1.19391 18 2.66667 18H25.3333C26.8061 18 28 16.9255 28 15.6V2.4C28 1.07452 26.8061 0 25.3333 0Z" fill="white"/>
<path fill-rule="evenodd" clip-rule="evenodd" d="M0 0H12V8.4H0V0Z" fill="#444379"/>
<path fill-rule="evenodd" clip-rule="evenodd" d="M1.33334 1.2V2.4H2.66668V1.2H1.33334ZM4.00001 1.2V2.4H5.33334V1.2H4.00001ZM6.66668 1.2V2.4H8.00001V1.2H6.66668ZM9.33334 1.2V2.4H10.6667V1.2H9.33334ZM8.00001 2.4V3.6H9.33334V2.4H8.00001ZM5.33334 2.4V3.6H6.66668V2.4H5.33334ZM2.66668 2.4V3.6H4.00001V2.4H2.66668ZM1.33334 3.6V4.8H2.66668V3.6H1.33334ZM4.00001 3.6V4.8H5.33334V3.6H4.00001ZM6.66668 3.6V4.8H8.00001V3.6H6.66668ZM9.33334 3.6V4.8H10.6667V3.6H9.33334ZM1.33334 6V7.2H2.66668V6H1.33334ZM4.00001 6V7.2H5.33334V6H4.00001ZM6.66668 6V7.2H8.00001V6H6.66668ZM9.33334 6V7.2H10.6667V6H9.33334ZM8.00001 4.8V6H9.33334V4.8H8.00001ZM5.33334 4.8V6H6.66668V4.8H5.33334ZM2.66668 4.8V6H4.00001V4.8H2.66668Z" fill="#A7B6E7"/>
<path fill-rule="evenodd" clip-rule="evenodd" d="M12 0V1.2H28V0H12ZM12 2.4V3.6H28V2.4H12ZM12 4.8V6H28V4.8H12ZM12 7.2V8.4H28V7.2H12ZM0 9.6V10.8H28V9.6H0ZM0 12V13.2H28V12H0ZM0 14.4V15.6H28V14.4H0ZM0 16.8V18H28V16.8H0Z" fill="#ED4C49"/>
<path d="M25.3333 0.600006H2.66666C1.56209 0.600006 0.666656 1.40589 0.666656 2.40001V15.6C0.666656 16.5941 1.56209 17.4 2.66666 17.4H25.3333C26.4379 17.4 27.3333 16.5941 27.3333 15.6V2.40001C27.3333 1.40589 26.4379 0.600006 25.3333 0.600006Z" stroke="black" stroke-opacity="0.1"/>
</g>
</g>
<defs>
<clipPath id="clip0_3_18">
<rect width="28" height="18" fill="white"/>
</clipPath>
</defs>
</svg>
